<svg width="54" height="59" viewBox="0 0 54 59" fill="none" xmlns="http://www.w3.org/2000/svg">
<path fill-rule="evenodd" clip-rule="evenodd" d="M34.6629 16.6547C49.9374 -1.07606 64.8435 25.1508 42.024 29.3988C64.8435 33.8316 49.7533 59.8737 34.6629 42.1427C42.3921 64.3062 12.3954 64.1216 20.1247 42.1427C4.85028 59.8737 -10.056 33.8316 12.7635 29.3988C-10.2401 25.1508 4.85028 -0.891365 20.1247 16.6547C12.2114 -5.32406 42.3921 -5.32406 34.6629 16.6547ZM27.3017 26.0743C29.1421 26.0743 30.7983 27.5519 30.7983 29.3988C30.7983 31.2457 29.1421 32.9081 27.3017 32.9081C25.4615 32.9081 23.9891 31.2457 23.9891 29.3988C23.9891 27.5519 25.4615 26.0743 27.3017 26.0743Z" fill="#698269"/>
</svg>
