<svg width="72" height="72" viewBox="0 0 72 72" fill="none" xmlns="http://www.w3.org/2000/svg">
<path d="M35.2562 1.18874C35.3895 0.0663989 37.0181 0.0663989 37.1514 1.18874L38.2686 10.6042C39.7111 22.7621 49.2967 32.3476 61.4545 33.7902L70.8699 34.9074C71.9924 35.0407 71.9924 36.6693 70.8699 36.8026L61.4545 37.9197C49.2967 39.3623 39.7111 48.9479 38.2686 61.1056L37.1514 70.5211C37.0181 71.6436 35.3895 71.6436 35.2562 70.5211L34.139 61.1056C32.6964 48.9479 23.1109 39.3623 10.953 37.9197L1.53756 36.8026C0.415215 36.6693 0.415215 35.0407 1.53756 34.9074L10.953 33.7902C23.1109 32.3476 32.6964 22.7621 34.139 10.6042L35.2562 1.18874Z" fill="#B5883D"/>
</svg>
