<svg width="117" height="111" viewBox="0 0 117 111" fill="none" xmlns="http://www.w3.org/2000/svg">
<path d="M112.308 28.4326C110.819 27.2504 108.707 27.5694 107.65 29.0706L93.9042 43.6503L94.5448 7.56688C94.5794 5.76552 93.9562 4.05798 92.7789 2.78202C91.5844 1.46854 89.9916 0.736734 88.2603 0.736734H87.8448C86.4598 0.736734 85.1614 1.31842 84.1919 2.40674C83.2397 3.45753 82.7376 4.84608 82.7722 6.30968L83.7071 45.3578C83.7071 45.6018 83.7417 51.3248 73.9255 52.507C73.8389 52.507 73.7523 52.507 73.6658 52.507H47.5929C47.4891 52.507 47.3852 52.507 47.2813 52.4882C46.3464 52.3381 38.071 50.8369 36.8937 46.3148C36.8591 46.1834 36.8418 46.0146 36.8418 45.8082L36.1493 6.29092C36.08 2.91337 33.5004 0.230103 30.3149 0.267631L27.995 0.30516C27.5795 0.30516 27.1813 0.549093 26.9389 0.924376C26.6966 1.29966 26.6446 1.76876 26.8004 2.20034C26.8178 2.27539 26.8351 2.35045 26.8351 2.42551L28.1162 44.9825L6.4754 32.1666C5.81752 31.5662 4.9692 31.3223 4.1382 31.4724C3.27256 31.6412 2.52812 32.2042 2.11262 33.0298L0.866107 35.5442C-0.259215 37.7959 0.190905 40.5542 1.93948 42.2617C2.11261 42.4306 2.32036 42.5807 2.56274 42.7121L26.5408 55.603C26.6793 55.6781 26.7831 55.7531 26.8524 55.8282C28.0816 56.9728 28.7741 58.6241 28.7741 60.3504V106.979C28.7741 108.949 30.263 110.544 32.1154 110.544H33.1715C36.8418 110.544 39.8369 107.354 39.8369 103.414V68.6441C39.8369 65.0789 42.5549 62.133 45.9136 62.0767L77.8554 61.7389C79.5521 61.7014 81.1621 62.4144 82.374 63.6904C83.5513 64.9476 84.1919 66.6176 84.1919 68.4002V103.264C84.1919 105.253 84.9363 107.092 86.2867 108.462C87.6371 109.831 89.4549 110.544 91.342 110.432C93.0906 110.319 94.4583 108.743 94.4583 106.867V64.2158C94.4583 61.2698 95.4278 58.3989 97.211 56.1284C100.189 52.3381 104.984 47.4031 109.209 43.0498C114.783 37.308 116.74 35.2252 116.861 34.2682C116.965 33.4238 116.601 31.9039 112.238 28.4138" fill="#B99C6B"/>
</svg>
