<svg width="118" height="111" viewBox="0 0 118 111" fill="none" xmlns="http://www.w3.org/2000/svg">
<path d="M98.7632 55.1495C108.386 43.6658 118.256 29.4239 117.454 26.8907C117.378 26.6843 115.564 21.7493 112.49 20.4171C111.459 19.9667 110.39 19.9667 109.34 20.3983C108.882 20.586 108.519 20.9425 108.271 21.4303C103.479 30.9062 98.5914 40.4759 95.2121 40.551C95.0021 40.551 94.2957 40.551 93.6275 39.4439C93.2647 37.1922 88.0908 8.50187 64.1687 1.55914C63.6341 1.39026 50.7852 -2.51267 39.4064 4.12982C31.6742 8.63321 26.5767 16.8707 24.2475 28.6358C24.2475 28.7108 24.2284 28.8046 24.2093 28.8797L22.911 42.2961C22.8919 42.5963 22.7201 42.8402 22.4528 42.9716C22.2046 43.1029 21.9183 43.1029 21.6701 42.9716C18.6726 41.3391 12.9641 37.8677 8.49662 32.8389C7.44657 31.6568 5.88104 31.1502 4.3346 31.4692C2.76906 31.8069 1.58535 32.914 1.12714 34.4151C0.458923 36.6105 1.14624 39.0123 2.86451 40.5322L20.0472 57.0071C20.2763 57.2323 20.3718 57.5513 20.2763 57.8515C19.2454 61.5668 15.7897 75.4898 15.1406 98.701C14.9879 104.518 19.2263 109.622 24.992 110.541C25.1066 110.541 25.2211 110.56 25.3548 110.56C25.8703 110.56 26.3857 110.372 26.8058 110.035C27.3212 109.603 27.6267 108.965 27.6458 108.289L28.0468 62.1673C28.0468 61.8858 28.1804 61.6419 28.4095 61.473C28.6195 61.3229 28.9059 61.2853 29.1541 61.3604C31.6169 62.1485 36.7909 63.5933 43.7976 64.494C50.4798 65.3384 57.5629 65.3759 64.8369 64.6066C72.0536 63.8373 81.5232 62.7302 85.7043 61.7732C86.048 61.6982 86.2962 61.8483 86.4107 61.9421C86.6207 62.111 86.7353 62.3549 86.7353 62.6364L85.8571 108.158C85.8571 108.834 86.1244 109.472 86.6399 109.922C87.1363 110.354 87.7663 110.541 88.3963 110.466C93.2838 109.828 98.5341 106.207 98.6105 101.835C98.7441 92.2837 99.126 60.7224 98.6105 55.7875C98.5914 55.5435 98.6487 55.3371 98.8014 55.1495M85.628 48.0379C84.8261 49.6891 83.337 50.9276 81.5423 51.4342C76.8266 52.7664 67.7579 54.2488 51.4153 53.6671C51.3389 53.6671 42.8621 53.0667 36.5427 51.5655C32.8388 50.6836 30.4523 47.1184 31.006 43.2906C32.2088 34.9405 35.2062 19.9667 41.6402 13.5682C42.4611 12.7426 43.5112 12.0295 44.7522 11.4666C50.0597 9.04603 63.5195 5.06803 74.0965 20.586C74.9365 21.9933 82.3442 34.5465 85.7807 42.7464C86.5062 44.4352 86.4489 46.3679 85.628 48.0191" fill="#8E5454"/>
</svg>
