<svg width="118" height="111" viewBox="0 0 118 111" fill="none" xmlns="http://www.w3.org/2000/svg">
<path d="M115.289 44.1537C116.976 42.6151 117.651 40.2132 117.013 38.0178C116.564 36.4979 115.383 35.3909 113.865 35.0719C112.347 34.7529 110.81 35.2407 109.779 36.4417C106.012 40.7762 102.226 42.6713 100.315 43.4219C99.996 43.5533 99.7336 43.4219 99.6024 43.3469C99.3775 43.1967 99.2276 42.9716 99.2088 42.6901L97.8969 28.8797C97.8969 28.8797 97.8969 28.7108 97.8595 28.6358C95.573 16.8707 90.569 8.63322 82.9786 4.12983C71.8086 -2.51268 59.1955 1.39026 58.6895 1.55914C35.2062 8.50187 30.1272 37.1735 29.7524 39.4439C29.2651 40.2508 28.7216 40.3258 28.3655 40.3258C23.4552 40.232 11.9666 21.7118 9.69888 17.1521C9.45524 16.683 9.09915 16.3077 8.64935 16.1201C7.61856 15.6885 6.56903 15.6885 5.55698 16.1389C2.53958 17.4711 0.759134 22.4061 0.665426 22.65C0.25311 24.0386 2.67078 28.6921 23.1554 53.2918C23.8488 54.1175 24.3736 54.7554 24.7109 55.1682C24.8609 55.3371 24.9171 55.5623 24.8983 55.7875C24.3736 60.7037 24.7484 92.2837 24.8983 101.835C24.9546 106.207 30.1272 109.828 34.9251 110.466C35.5436 110.541 36.1808 110.354 36.6493 109.922C37.1553 109.472 37.4365 108.834 37.4177 108.158L36.5556 62.6364C36.5556 62.3737 36.6681 62.111 36.8742 61.9421C36.9867 61.8483 37.2303 61.6982 37.5677 61.792C41.6533 62.749 50.9679 63.856 58.0522 64.6254C65.1928 65.3947 72.1459 65.3572 78.7055 64.5128C85.6024 63.6309 90.6814 62.1673 93.0803 61.3792C93.324 61.3041 93.5864 61.3416 93.8113 61.4918C94.0362 61.6419 94.1673 61.9046 94.1673 62.186L94.5609 108.327C94.5609 109.003 94.8608 109.641 95.3856 110.072C95.7791 110.41 96.2852 110.597 96.7912 110.597C96.9036 110.597 97.0161 110.597 97.1473 110.579C102.826 109.659 106.987 104.555 106.837 98.7198C106.199 75.5273 102.826 61.5856 101.795 57.8703C101.72 57.5701 101.795 57.2511 102.02 57.0447L115.345 44.1537H115.289ZM85.8461 51.5843C79.6426 53.1042 71.3213 53.6859 71.2463 53.6859C55.166 54.2676 46.2825 52.7852 41.6346 51.453C39.8916 50.9463 38.4298 49.7079 37.6239 48.0566C36.818 46.4054 36.7805 44.4727 37.474 42.7839C40.9224 34.4339 48.6252 21.1864 49.0001 20.5672C54.9786 11.6355 61.913 9.17738 67.7229 9.17738C71.9585 9.17738 75.5757 10.4721 77.7684 11.5041C78.9866 12.0671 80.0174 12.7801 80.8233 13.6057C87.1392 20.023 90.0629 34.9968 91.2624 43.3469C91.8059 47.1747 89.4819 50.7212 85.8461 51.6031" fill="#698269"/>
</svg>
