<svg width="117" height="111" viewBox="0 0 117 111" fill="none" xmlns="http://www.w3.org/2000/svg">
<path d="M107.415 59.7506C105.74 58.0243 103.905 56.4106 101.932 54.9283C92.2748 47.6853 79.8186 45.2272 67.7524 42.8442C65.5961 42.4126 63.4168 41.9998 61.2835 41.5307C56.512 40.5174 50.9377 39.2227 45.7534 37.1774C42.1289 35.7513 39.812 34.6255 38.2751 31.2667C37.0363 28.5459 37.4263 25.5999 39.445 22.5414C43.1383 16.9121 51.4653 12.2399 57.0855 11.1516C65.5961 9.50031 74.7719 13.7598 83.6725 17.8691C89.1092 20.3835 94.2706 22.7665 99.3173 23.9299L100.005 24.0988C103.905 25.0182 111.154 26.7633 114.205 23.6672C115.054 22.6727 115.306 21.5469 114.893 20.4023C114.182 18.4133 111.613 16.762 109.457 16.0302C105.947 14.5479 102.299 12.6339 98.4226 10.6074C88.5816 5.44726 78.4193 0.155773 68.3259 0.305886C51.58 -0.388387 32.1731 8.3557 25.1307 19.8206C21.7356 25.3185 19.6711 33.8186 29.0763 43.1444C37.3346 49.7494 48.942 52.1512 60.0906 54.0276C61.7652 54.309 63.4398 54.5717 65.1373 54.8344C74.4049 56.2605 83.9707 57.7429 91.3802 62.6215C99.6155 68.0444 108.057 77.3889 104.662 85.814C100.143 97.0725 86.8382 99.4368 76.4924 100.056C44.744 101.951 23.7084 81.0292 9.53179 75.6626C7.69662 74.9683 5.74676 74.6306 3.70514 75.156C0.814752 75.9253 -3.75022 80.6539 5.5403 85.7765C7.30665 86.7522 40.4773 110.752 71.5604 110.733C73.4185 110.733 75.2537 110.658 77.043 110.545C92.229 109.419 105.305 103.34 111.98 94.2579C119.55 83.9751 117.761 70.4274 107.392 59.7319" fill="#AD5B4A"/>
</svg>
